# xmcd
#
# Track frame offsets:
#	150
#	14880
#	35644
#	55789
#	82805
#	98839
#	119692
#	158647
#	173780
#	190687
#	204874
#	225982
#	234359
#	246972
#	255302
#	276187
#
# Disc length: 3939 seconds
#
# Revision: 0
# Processed by: cddbd v1.5.1PL0 Copyright (c) Steve Scherf et al.
# Submitted via: audiograbber 1.83.01
#
DISCID=c70f6110
DTITLE=Θάνος Μικρούτσικος - Αυτά που τραγουδήσαμε [CD 1)
DYEAR=2002
DGENRE=Compilation
TTITLE0=Αυτούς τους έχω βαρεθεί
TTITLE1=Ρόζα
TTITLE2=Ανεμολόγιο
TTITLE3=Αννα μην κλαίς
TTITLE4=Όλα από χέρι καμένα
TTITLE5=Αν η μισή μου καρδιά
TTITLE6=Το κακοήθες μελάνωμα
TTITLE7=Σαν πλανόδιο τσίρκο
TTITLE8=Η δίκοπη ζω'η
TTITLE9=Η μπαλάντα του ξασηκωμού
TTITLE10=Μπούμ
TTITLE11=Η πιό όμορφη θάλασσα
TTITLE12=Συγνώμη για την άμυνα
TTITLE13=Μικρόκοσμος
TTITLE14=Νίκος Πλουμίδης
TTITLE15=Για τον φτωχό Β.Β.
EXTD=
EXTT0=
EXTT1=
EXTT2=
EXTT3=
EXTT4=
EXTT5=
EXTT6=
EXTT7=
EXTT8=
EXTT9=
EXTT10=
EXTT11=
EXTT12=
EXTT13=
EXTT14=
EXTT15=
PLAYORDER=
